<svg width="111" height="44" viewBox="0 0 111 44" fill="none" xmlns="http://www.w3.org/2000/svg">
<path d="M79.915 32.9658L77.845 40.5191C72.59 39.1502 67.625 36.4516 63.5 32.4231L69.16 26.8889C72.25 29.9102 75.975 31.9342 79.915 32.9658Z" fill="#006FFF"/>
<path d="M94.41 40.5192C88.99 41.9418 83.265 41.9418 77.845 40.5192L79.915 32.9658C83.98 34.0267 88.275 34.0316 92.34 32.9658L94.41 40.5192Z" fill="#01AAFF"/>
<path d="M108.755 32.4231C104.635 36.4516 99.6651 39.1551 94.4101 40.5191L92.3401 32.9658C96.2751 31.9391 100 29.9151 103.095 26.8889L108.755 32.4231Z" fill="#00CCFF"/>
<path d="M8.89062 19.2844C7.63281 19.2844 6.37891 19.0552 5.12891 18.5969C3.88672 18.1309 2.84375 17.5122 2 16.7406L3.71094 14.2771C4.39844 14.9188 5.20312 15.4344 6.125 15.824C7.05469 16.2059 7.97656 16.3969 8.89062 16.3969C9.73438 16.3969 10.4531 16.2212 11.0469 15.8698C11.6406 15.5184 11.9375 15.0677 11.9375 14.5177C11.9375 14.3267 11.8945 14.151 11.8086 13.9906C11.7305 13.8226 11.6406 13.6813 11.5391 13.5667C11.4375 13.4445 11.2734 13.326 11.0469 13.2115C10.8281 13.0892 10.6406 12.9976 10.4844 12.9365C10.3359 12.8677 10.1055 12.7875 9.79297 12.6958C9.48828 12.6042 9.25781 12.5431 9.10156 12.5125C8.95312 12.4743 8.70703 12.4132 8.36328 12.3292C7.70703 12.1764 7.10156 12.0007 6.54688 11.8021C5.99219 11.6035 5.46484 11.359 4.96484 11.0688C4.47266 10.7708 4.05469 10.4424 3.71094 10.0833C3.36719 9.72431 3.09375 9.30799 2.89062 8.83438C2.69531 8.35313 2.59766 7.83751 2.59766 7.28751C2.59766 5.8514 3.17969 4.69792 4.34375 3.82709C5.50781 2.95626 7.02344 2.52084 8.89062 2.52084C10.0859 2.52084 11.1797 2.70417 12.1719 3.07084C13.1719 3.43751 13.9883 3.9264 14.6211 4.53751L13.0859 6.97813C12.6016 6.5198 11.9727 6.14549 11.1992 5.85522C10.4336 5.5573 9.64844 5.40834 8.84375 5.40834C8.01562 5.40834 7.33594 5.57258 6.80469 5.90105C6.27344 6.22952 6.00781 6.64584 6.00781 7.15001C6.00781 7.44792 6.10156 7.71529 6.28906 7.95209C6.47656 8.1889 6.74219 8.39133 7.08594 8.55938C7.42969 8.7198 7.76953 8.85348 8.10547 8.96042C8.44141 9.05973 8.83203 9.15904 9.27734 9.25834C9.56641 9.31945 9.83984 9.38438 10.0977 9.45313C10.3633 9.51424 10.7109 9.61737 11.1406 9.76251C11.5703 9.90765 11.9609 10.0681 12.3125 10.2438C12.6719 10.4118 13.0469 10.6333 13.4375 10.9083C13.8281 11.1833 14.1562 11.4813 14.4219 11.8021C14.6875 12.1153 14.9062 12.4972 15.0781 12.9479C15.2578 13.391 15.3477 13.8684 15.3477 14.3802C15.3477 15.3274 15.0625 16.1792 14.4922 16.9354C13.9219 17.684 13.1445 18.2646 12.1602 18.6771C11.1836 19.082 10.0938 19.2844 8.89062 19.2844Z" fill="black"/>
<path d="M32.082 6.74897C33.4648 6.74897 34.5703 7.15383 35.3984 7.96355C36.2344 8.77327 36.6523 9.85417 36.6523 11.2063V18.9979H33.5234V12.1229C33.5234 11.3896 33.3047 10.8052 32.8672 10.3698C32.4375 9.92674 31.8594 9.70522 31.1328 9.70522C30.3672 9.70522 29.7461 9.93056 29.2695 10.3813C28.793 10.832 28.5547 11.4278 28.5547 12.1688V18.9979H25.4375V12.1229C25.4375 11.3972 25.2148 10.8129 24.7695 10.3698C24.332 9.92674 23.7461 9.70522 23.0117 9.70522C22.2539 9.70522 21.6367 9.93438 21.1602 10.3927C20.6836 10.8434 20.4453 11.4354 20.4453 12.1688V18.9979H17.3281V7.03542H20.4453V8.27292C21.3672 7.25695 22.5742 6.74897 24.0664 6.74897C24.918 6.74897 25.6719 6.92084 26.3281 7.26459C26.9922 7.6007 27.5195 8.07813 27.9102 8.69688C28.918 7.39827 30.3086 6.74897 32.082 6.74897Z" fill="black"/>
<path d="M42.3828 4.72084C42.0078 5.08751 41.543 5.27084 40.9883 5.27084C40.4336 5.27084 39.9648 5.08751 39.582 4.72084C39.207 4.35417 39.0195 3.90348 39.0195 3.36876C39.0195 2.83404 39.207 2.38334 39.582 2.01667C39.9648 1.65001 40.4336 1.46667 40.9883 1.46667C41.543 1.46667 42.0078 1.65001 42.3828 2.01667C42.7656 2.38334 42.957 2.83404 42.957 3.36876C42.957 3.90348 42.7656 4.35417 42.3828 4.72084ZM39.4297 18.9979V7.03542H42.5469V18.9979H39.4297Z" fill="black"/>
<path d="M45.5234 18.9979V2.09688H48.6406V18.9979H45.5234Z" fill="black"/>
<path d="M63.8047 13.0396C63.8047 13.4215 63.7812 13.7806 63.7344 14.1167H54.2539C54.4727 14.8729 54.8906 15.4726 55.5078 15.9156C56.125 16.3587 56.875 16.5802 57.7578 16.5802C58.4688 16.5802 59.1211 16.4427 59.7148 16.1677C60.3086 15.8851 60.7773 15.5299 61.1211 15.1021L63.207 16.8896C62.5586 17.6458 61.7539 18.234 60.793 18.6542C59.8398 19.0743 58.7969 19.2844 57.6641 19.2844C56.3828 19.2844 55.2227 19.0094 54.1836 18.4594C53.1445 17.9094 52.332 17.1531 51.7461 16.1906C51.1602 15.2205 50.8672 14.1472 50.8672 12.9708C50.8672 11.8097 51.1484 10.7556 51.7109 9.80834C52.2812 8.85348 53.0625 8.10487 54.0547 7.56251C55.0547 7.02015 56.1602 6.74897 57.3711 6.74897C59.207 6.74897 60.7383 7.34862 61.9648 8.54792C63.1914 9.73959 63.8047 11.2368 63.8047 13.0396ZM59.3281 10.0948C58.7656 9.6441 58.1055 9.41876 57.3477 9.41876C56.5898 9.41876 55.9297 9.6441 55.3672 10.0948C54.8047 10.5379 54.4258 11.1337 54.2305 11.8823H60.4766C60.2812 11.1337 59.8984 10.5379 59.3281 10.0948Z" fill="black"/>
<path d="M73.4023 2.8073C75.0117 2.8073 76.3594 3.32292 77.4453 4.35417C78.5391 5.38542 79.0859 6.66876 79.0859 8.20417C79.0859 9.73959 78.5391 11.0229 77.4453 12.0542C76.3594 13.0854 75.0117 13.601 73.4023 13.601H69.4883V18.9979H66.1719V2.8073H73.4023ZM73.332 10.5531C74.0039 10.5531 74.5625 10.3316 75.0078 9.88855C75.4531 9.43785 75.6758 8.8764 75.6758 8.20417C75.6758 7.53195 75.4531 6.97431 75.0078 6.53126C74.5625 6.08056 74.0039 5.85522 73.332 5.85522H69.4883V10.5531H73.332Z" fill="black"/>
<path d="M89.8555 7.03542H92.9727V18.9979H89.8555V17.5656C88.7852 18.7115 87.457 19.2844 85.8711 19.2844C84.168 19.2844 82.7461 18.6847 81.6055 17.4854C80.4648 16.2861 79.8945 14.7965 79.8945 13.0167C79.8945 11.2368 80.4648 9.74723 81.6055 8.54792C82.7461 7.34862 84.168 6.74897 85.8711 6.74897C87.4648 6.74897 88.793 7.31806 89.8555 8.45626V7.03542ZM86.4688 16.3281C87.4375 16.3281 88.2422 16.0111 88.8828 15.3771C89.5312 14.7431 89.8555 13.9563 89.8555 13.0167C89.8555 12.0771 89.5312 11.2903 88.8828 10.6563C88.2422 10.0222 87.4375 9.70522 86.4688 9.70522C85.5078 9.70522 84.707 10.0222 84.0664 10.6563C83.4258 11.2903 83.1055 12.0771 83.1055 13.0167C83.1055 13.9563 83.4258 14.7431 84.0664 15.3771C84.707 16.0111 85.5078 16.3281 86.4688 16.3281Z" fill="black"/>
<path d="M104.48 7.03542H107.961L101.914 21.0833C101.578 21.9007 101.074 22.5462 100.402 23.0198C99.7305 23.501 98.9922 23.7417 98.1875 23.7417C97.6328 23.7417 97.0586 23.6309 96.4648 23.4094C95.8789 23.1879 95.3828 22.8976 94.9766 22.5385L96.1719 20.1438C96.5859 20.5715 97.082 20.7854 97.6602 20.7854C98.293 20.7854 98.7578 20.4722 99.0547 19.8458L99.5586 18.8146L94.5664 7.03542H98.1172L101.316 15.1708L104.48 7.03542Z" fill="black"/>
</svg>
